<svg width="33.000000" height="31.000000" viewBox="0 0 33 31" fill="none" xmlns="http://www.w3.org/2000/svg" xmlns:xlink="http://www.w3.org/1999/xlink">
	<desc>
			Created with Pixso.
	</desc>
	<defs>
		<linearGradient id="paint_linear_14_3753_0" x1="16.000044" y1="-0.666626" x2="16.000044" y2="31.000042" gradientUnits="userSpaceOnUse">
			<stop stop-color="#EA9769"/>
			<stop offset="1.000000" stop-color="#EA6969"/>
		</linearGradient>
	</defs>
	<path d="M27.66 -0.67L4.33 -0.67C1.57 -0.67 -0.67 1.57 -0.67 4.33L-0.67 9.05C-0.67 10.8 -0.03 12.4 1 13.62L1 29.33C1 29.77 1.17 30.19 1.48 30.51C1.8 30.82 2.22 31 2.66 31L16 31C16.44 31 16.86 30.82 17.17 30.51C17.49 30.19 17.66 29.77 17.66 29.33L17.66 21L24.33 21L24.33 29.33C24.33 29.77 24.5 30.19 24.82 30.51C25.13 30.82 25.55 31 26 31L29.33 31C29.77 31 30.19 30.82 30.51 30.51C30.82 30.19 31 29.77 31 29.33L31 13.62C32.03 12.4 32.66 10.8 32.66 9.05L32.66 4.33C32.66 1.57 30.42 -0.67 27.66 -0.67ZM29.33 4.33L29.33 9.05C29.33 10.95 27.91 12.57 26.18 12.66L26 12.66C24.16 12.66 22.66 11.17 22.66 9.33L22.66 2.66L27.66 2.66C28.58 2.66 29.33 3.41 29.33 4.33ZM12.66 9.33L12.66 2.66L19.33 2.66L19.33 9.33C19.33 11.17 17.83 12.66 16 12.66C14.16 12.66 12.66 11.17 12.66 9.33ZM2.66 4.33C2.66 3.41 3.41 2.66 4.33 2.66L9.33 2.66L9.33 9.33C9.33 11.17 7.83 12.66 6 12.66L5.81 12.66C4.08 12.57 2.66 10.95 2.66 9.05L2.66 4.33ZM12.66 22.66L6 22.66L6 17.66L12.66 17.66L12.66 22.66Z" fill="url(#paint_linear_14_3753_0)" fill-opacity="1.000000" fill-rule="nonzero"/>
</svg>
